<svg xmlns:inkscape="http://www.inkscape.org/namespaces/inkscape" xmlns:sodipodi="http://sodipodi.sourceforge.net/DTD/sodipodi-0.dtd" xmlns="http://www.w3.org/2000/svg" xmlns:svg="http://www.w3.org/2000/svg" version="1.1" id="svg1" xml:space="preserve" inkscape:version="1.3 (0e150ed6c4, 2023-07-21)" sodipodi:docname="logo.svg" viewBox="90.11 144.62 63.38 11.43"><sodipodi:namedview id="namedview1" pagecolor="#ffffff" bordercolor="#000000" borderopacity="0.25" inkscape:showpageshadow="2" inkscape:pageopacity="0.0" inkscape:pagecheckerboard="0" inkscape:deskcolor="#d1d1d1" inkscape:document-units="mm" inkscape:zoom="2.8970539" inkscape:cx="478.07188" inkscape:cy="601.81829" inkscape:window-width="1920" inkscape:window-height="1009" inkscape:window-x="1358" inkscape:window-y="-8" inkscape:window-maximized="1" inkscape:current-layer="layer1"/><defs id="defs1"/><g inkscape:label="Camada 1" inkscape:groupmode="layer" id="layer1"><g id="g2" transform="matrix(0.26458333,0,0,0.26458333,85.614145,138.13128)"><g fill="#ffffff" id="g1"><path d="m 150.70681,41.064884 c -1.14421,-0.457567 -2.03669,-1.27323 -2.15111,-1.969527 -0.0686,-0.338202 -0.16019,-1.651219 -0.22884,-2.904555 l -0.11442,-2.307728 h 5.40064 l 5.37776,-0.01989 -3.8041,3.704869 c -0.11442,2.984131 3.36931,2.48223 1.99626,3.218316 -0.73229,0.397884 -1.21285,0.477461 -3.27242,0.537143 -1.80785,0.03979 -2.60879,-0.03979 -3.20377,-0.258624 z" data-index="1" style="visibility:hidden;opacity:1;stroke-width:0.426737" id="path1" sodipodi:nodetypes="cccccccccc"/></g><g fill="#1e3a5f" id="g9"><path d="m 148.3,67.1 c -0.15,-0.25 -1.75,-1.2 -3.55,-2.05 -2.25,-1.15 -3.8,-2.3 -4.8,-3.7 -1.45,-2 -3.3,-7.15 -2.75,-7.7 0.15,-0.15 -0.05,-0.75 -0.45,-1.35 -0.4,-0.55 -0.4264,-1.988326 -0.4264,-2.688326 0.05,-1.2 -0.2736,-0.811674 0.4264,0.08833 0.7,0.9 -0.37183,0.620558 -0.37183,-1.929442 0,-2 0.14518,-2.979442 0.37183,-2.970558 -0.4,-0.15 -0.75,-0.55 -0.75,-0.85 0,-0.7 6.05,-0.2 7.55,0.6 1.2,0.6 1.2,1.45 0.1,1.45 -0.8,0 -0.9,0.5 -0.65,5.7 0.25,5.5 0.3,5.8 1.7,7.25 2.2,2.3 5.15,3.25 9.25,2.95 4,-0.3 6.65,-1.65 7.9,-4.05 0.55,-1.05 0.9,-3.35 1.05,-6.7 0.2,-4.6 0.15,-5.15 -0.6,-5.15 -0.55,0 -0.8,-0.3 -0.7,-0.85 0.1,-0.6 0.85,-1 2.15,-1.25 2.95,-0.5 6.25,-0.45 6.25,0.1 0,0.3 -0.3,0.5 -0.7,0.5 -0.4,0 -0.23909,0.213705 -0.38909,0.563705 -0.10219,0.306571 -0.0626,0.874212 -0.001,1.503326 0.11898,1.217779 -0.12243,2.752191 0.24022,2.982969 0.3,0.2 0.25,0.95 -0.1,2 -0.3,0.95 -0.8,3 -1.05,4.55 -0.85,4.45 -4.35,8.4 -8.5,9.65 -0.7,0.2 -1.75,0.65 -2.35,1.05 -1.58934,0.347969 -1.15,0.65 -1.15,-0.3 0,-0.9 -0.3,-1 -3.25,-1 -2.9,0 -3.25,0.1 -3.25,1 0,1 0.16295,0.940101 -1.2,0.6 z" data-index="3" style="opacity:1" id="path2" sodipodi:nodetypes="cccsccsscscscccccsccsscscccccssscc"/><path d="M 26,66.35 C 22.4,65.5 20.5,64.45 18.55,62.25 17.3,60.8 17,60 17,58.25 17,55.75 18.35,54 20.3,54 c 0.85,0 1.15,0.4 1.4,1.75 0.4,2 2.3,4.5 4.35,5.5 3.55,1.85 11.5,1.2 13.55,-1.1 2.2,-2.45 1.45,-6.1 -1.65,-7.65 -1,-0.55 -4.2,-1.55 -7.05,-2.2 -10,-2.4 -13.4,-5.05 -13.4,-10.55 0,-3.9 1.85,-6.35 6.25,-8.35 3.6,-1.6 11.35,-1.6 15.05,0.05 6.35,2.8 8.25,9.1 3.1,10.25 C 40.7,41.95 40.5,41.8 40,40.1 39.15,37.5 37.25,35.7 34.75,35.05 28.6,33.5 23,35.7 23,39.6 c 0,3.5 1.75,4.7 9.75,6.6 6.55,1.6 10.55,3.5 12.05,5.7 3.35,4.95 0.95,11.3 -5.2,13.6 -3.5,1.35 -9.85,1.7 -13.6,0.85 z" data-index="4" id="path3"/><path d="m 66,66.35 c -5.55,-1.3 -8.5,-3.9 -8.9,-7.75 -0.2,-2.1 -0.05,-2.6 0.95,-3.55 1.4,-1.3 3.45,-1.4 3.45,-0.2 0,1.85 2.05,5 3.95,6.05 3.9,2.2 11.9,1.75 14.15,-0.75 2.2,-2.45 1.45,-6.1 -1.65,-7.65 -1,-0.55 -4.2,-1.55 -7.05,-2.2 -10,-2.4 -13.4,-5.05 -13.4,-10.55 0,-3.9 1.85,-6.35 6.25,-8.35 3.6,-1.6 11.35,-1.6 15.05,0.05 6.35,2.8 8.25,9.1 3.1,10.25 C 80.7,41.95 80.5,41.8 80,40.1 79.15,37.5 77.25,35.7 74.75,35.05 68.6,33.5 63,35.7 63,39.6 c 0,3.5 1.75,4.7 9.75,6.6 6.55,1.6 10.55,3.5 12.05,5.7 3.35,4.95 0.95,11.3 -5.2,13.6 -3.5,1.35 -9.85,1.7 -13.6,0.85 z" data-index="5" style="opacity:1" id="path4"/><path d="M 109,51.05 V 35 h -6.55 -6.55 l 0.35,-1.35 c 0.15,-0.8 0.75,-1.85 1.3,-2.4 0.9,-0.95 1.75,-1 15.45,-1.15 14.2,-0.15 14.5,-0.1 14.5,0.85 0,0.55 -0.55,1.65 -1.2,2.4 -1.15,1.35 -1.4,1.4 -6.5,1.55 l -5.3,0.2 v 14.6 c 0,14.55 0,14.65 -1.1,15.65 -0.65,0.6 -1.9,1.2 -2.75,1.4 L 109,67.1 Z" data-index="6" style="opacity:1" id="path5"/><path d="m 179.5,49.5 c 0,-17.1 0,-17.5 1.05,-18.55 1,-1 1.45,-1.05 10.6,-0.85 8.7,0.15 9.8,0.25 11.65,1.25 3.75,2 5.7,5.35 5.7,9.8 0,2.65 -1.05,4.85 -3.2,6.7 l -1.8,1.65 1.9,1.9 c 2.2,2.2 2.6,3.6 2.6,8.9 0,3.1 -0.15,3.85 -1.1,4.9 -0.65,0.65 -1.9,1.35 -2.75,1.55 l -1.65,0.35 v -5.35 c 0,-5.7 -0.7,-8.25 -2.4,-9.2 -0.6,-0.3 -4,-0.55 -8.05,-0.55 H 185 v 6.05 c 0,3.3 -0.2,6.45 -0.5,6.95 -0.45,0.85 -2.9,2 -4.3,2 -0.6,0 -0.7,-3.15 -0.7,-17.5 z M 200.35,46 c 3.2,-1.9 3.35,-7.6 0.3,-9.95 C 199.5,35.1 198.65,35 192.2,35 H 185 v 6 6 h 6.9 c 5.9,0 7.05,-0.15 8.45,-1 z" data-index="7" style="opacity:1" id="path6"/><path d="m 220.5,50.1 c 0,-14.2 0.1,-17.05 0.75,-17.95 0.85,-1.25 4.1,-2.5 4.75,-1.85 0.25,0.25 2.95,6.3 6,13.45 3.05,7.15 5.8,13.5 6.1,14.1 0.45,0.85 0.4,1.45 -0.05,2.45 -0.3,0.75 -0.45,1.45 -0.35,1.6 0.15,0.15 0.6,-0.5 1,-1.45 1.3,-3.15 11.9,-29.2 12.15,-29.85 0.4,-0.95 3.15,-0.25 4.5,1.05 1.1,1.1 1.15,1.2 1.15,18.1 l 0.05,17 -1.65,-0.15 c -3.25,-0.25 -3.4,-0.9 -3.4,-13.35 0,-6.85 0.2,-11.7 0.55,-12.7 0.3,-0.9 0.45,-1.7 0.3,-1.85 -0.1,-0.15 -2.8,6 -5.9,13.6 -5.95,14.4 -6.6,15.45 -8.8,14.3 -0.65,-0.35 -2.9,-5.15 -6.65,-14.2 -6.1,-14.7 -5.9,-14.2 -6.25,-13.8 -0.15,0.15 0.1,1.05 0.5,2.05 0.6,1.45 0.75,4.1 0.75,12.6 0,6.1 -0.2,11.2 -0.5,11.75 -0.45,0.85 -2.9,2 -4.3,2 -0.6,0 -0.7,-3.05 -0.7,-16.9 z" data-index="8" style="opacity:1" id="path7"/><path d="m 150,34.5 v -2 h 3.25 3.25 V 31 c 0,-1 0.25,-1.5 0.75,-1.5 0.4,0 0.75,0.35 0.75,0.75 0,0.4 0.45,0.75 1,0.75 0.6,0 1,-0.35 1,-0.8 0,-0.45 0.3,-0.7 0.65,-0.6 0.35,0.15 0.65,1.35 0.75,3.05 0.15,2.65 0.1,2.85 -1.15,3.15 -0.7,0.15 -1.85,0.2 -2.5,0.1 -0.7,-0.15 -1.25,-0.05 -1.25,0.15 0,0.25 -0.35,0.45 -0.75,0.45 -0.4,0 -0.9112,-0.383922 -0.75,-0.75 1.11361,-2.528897 -1.28223,-2.183958 -2.48223,-2.183958 -1.3,0 -0.91777,1.583958 -0.71777,2.183958 0.2,0.5 0,0.75 -0.75,0.75 -0.9,0 -1.05,-0.3 -1.05,-2 z" data-index="9" id="path8" sodipodi:nodetypes="scccsssssccccsssscss"/><path d="m 144.2,35.3 c -0.15,-0.35 -0.2,-1.75 -0.1,-3.05 0.15,-2.5 1.2,-3.65 1.5,-1.65 l 0.15,1.15 1.15,-1.1 c 0.6,-0.65 1.35,-1.15 1.6,-1.15 0.7,0 0.6,5.2 -0.1,5.9 -0.85,0.85 -3.85,0.75 -4.2,-0.1 z" data-index="10" style="opacity:1" id="path9"/></g><g fill="#00bf6a" id="g21"><path d="m 150.15,67.6 c -1.6,-0.15 -3.5,-2.15 -2.9,-3.1 0.4,-0.6 9.75,-0.65 10.65,-0.05 0.55,0.3 0.45,0.7 -0.5,1.7 -1.2,1.35 -3.65,1.85 -7.25,1.45 z" data-index="11" id="path10"/><path d="m 143.3,63.25 c -0.55,-0.4 -0.8,-0.9 -0.65,-1.1 0.4,-0.4 2.85,0.85 2.85,1.45 0,0.65 -1.15,0.45 -2.2,-0.35 z" data-index="12" id="path11"/><path d="m 160.5,63 c 1.3,-1 2,-1.25 2,-0.7 0,0.55 -1.7,1.65 -2.5,1.65 -0.5,0.05 -0.3,-0.3 0.5,-0.95 z" data-index="13" id="path12"/><path d="m 140.1,59.95 c -0.35,-0.6 -0.55,-1.15 -0.4,-1.3 0.35,-0.35 1.25,0.3 1.8,1.4 0.75,1.35 -0.55,1.3 -1.4,-0.1 z" data-index="14" id="path13"/><path d="m 163.5,60.65 c 0.05,-0.7 1.35,-2.15 1.95,-2.15 0.35,0 0.3,0.45 -0.25,1.25 -0.8,1.2 -1.7,1.7 -1.7,0.9 z" data-index="15" id="path14"/><path d="m 137.6,55.75 c -0.9,-1.95 -0.7,-2.5 0.4,-1.5 1,0.9 1.4,2.75 0.6,2.75 -0.25,0 -0.7,-0.55 -1,-1.25 z" data-index="16" id="path15"/><path d="m 166,56.75 c 0,-0.6 1.2,-2.75 1.6,-2.75 0.5,0 0.5,0.15 -0.1,1.7 -0.4,1.1 -1.5,1.85 -1.5,1.05 z" data-index="17" id="path16"/><path d="m 136.6,52.1 c -0.35,-0.65 -0.6,-1.65 -0.5,-2.25 l 0.15,-1.1 0.65,1.15 c 0.35,0.65 0.6,1.65 0.5,2.25 l -0.15,1.1 z" data-index="18" id="path17"/><path d="m 168,51.15 c 0,-1.7 0.15,-2.05 0.75,-1.85 0.95,0.35 0.95,1.1 0,2.7 -0.7,1.25 -0.7,1.2 -0.75,-0.85 z" data-index="19" id="path18"/><path d="m 169,46.75 c 0,-0.75 0.2,-1.2 0.5,-1 0.3,0.15 0.5,0.6 0.5,1 0,0.4 -0.2,0.85 -0.5,1 -0.3,0.2 -0.5,-0.25 -0.5,-1 z" data-index="20" id="path19"/><path d="m 135.35,47.15 c -0.65,-0.65 -0.35,-1.6 0.4,-1.35 0.4,0.2 0.75,0.6 0.75,1 0,0.75 -0.6,0.95 -1.15,0.35 z" data-index="21" id="path20"/><path d="m 143.25,46 c -1.9,-0.25 -4.85,-0.75 -6.5,-1.15 -2.85,-0.65 -3,-0.75 -3,-2.15 0,-1.1 0.25,-1.5 1.15,-1.6 0.85,-0.15 1.1,-0.5 1.1,-1.75 0,-3.6 4.15,-9.6 7.95,-11.6 l 1.55,-0.8 v 3.5 c 0,1.9 0.2,3.6 0.45,3.75 0.95,0.6 1.45,-1.1 1.5,-4.9 0.05,-2.6 0.3,-4.15 0.7,-4.4 0.7,-0.45 7.1,-0.5 8.75,-0.1 1.05,0.3 1.1,0.6 1.1,4.75 0,2.4 0.2,4.5 0.4,4.65 0.75,0.45 1.7,-0.55 1.6,-1.75 -0.25,-3 0,-4.95 0.7,-4.95 0.4,0 1.8,1 3.15,2.2 2.55,2.3 4.8,6.2 5.35,9.35 0.25,1.4 0.6,1.9 1.55,2.15 1.7,0.45 1.75,2.65 0.15,3.05 -7.8,1.85 -20.4,2.65 -27.65,1.75 z m 9.96447,-8.568783 c 1.70228,-0.309899 1.47766,0.364977 1.59924,-0.849744 L 155.05,34 h -1.62741 c -2.20305,0 -1.72449,-0.295178 -1.45685,1.359771 C 152.45305,37.109899 151.89999,37 151.25,37 c -0.95,0 -0.95,0.1 0.75,2.6 l 1.25,1.85 -0.0736,-1.663705 c -0.0442,-1.101016 0.0381,-2.355078 0.0381,-2.355078 z" data-index="22" style="opacity:1" id="path21" sodipodi:nodetypes="ccscsccsccccscssccccccccscsccccc"/></g></g></g></svg>