<svg xmlns="http://www.w3.org/2000/svg" version="1.0" preserveAspectRatio="xMidYMid meet" viewBox="0 0 280 97">
 <g fill="#ffffff">
  
  <path d="M146.50 62.75 c-2.50 -1.15 -4.45 -3.20 -4.70 -4.95 -0.15 -0.85 -0.35 -4.15 -0.50 -7.30 l-0.25 -5.80 11.80 0 11.75 -0.05 -0.20 6.55 c-0.25 7.50 -0.75 9 -3.75 10.85 -1.60 1 -2.65 1.20 -7.15 1.35 -3.95 0.10 -5.70 -0.10 -7 -0.65z" data-index="1" style="opacity: 1; visibility: hidden;"></path>
  
 </g>
 <g fill="#1e3a5f">
  <path d="M148.30 67.10 c-0.15 -0.25 -1.75 -1.20 -3.55 -2.05 -2.25 -1.15 -3.80 -2.30 -4.80 -3.70 -1.45 -2 -3.30 -7.15 -2.75 -7.70 0.15 -0.15 -0.05 -0.75 -0.45 -1.35 -0.40 -0.55 -0.75 -1.60 -0.75 -2.30 0.05 -1.20 0.05 -1.20 0.75 -0.30 0.70 0.90 0.75 0.75 0.75 -1.80 0 -2 -0.20 -2.85 -0.75 -3.10 -0.40 -0.15 -0.75 -0.55 -0.75 -0.85 0 -0.70 6.05 -0.20 7.55 0.60 1.20 0.60 1.20 1.45 0.10 1.45 -0.80 0 -0.90 0.50 -0.65 5.70 0.25 5.50 0.30 5.80 1.70 7.25 2.20 2.30 5.15 3.25 9.25 2.95 4 -0.30 6.65 -1.65 7.90 -4.05 0.55 -1.05 0.90 -3.35 1.05 -6.70 0.20 -4.60 0.15 -5.15 -0.60 -5.15 -0.55 0 -0.80 -0.30 -0.70 -0.85 0.10 -0.60 0.85 -1 2.15 -1.25 2.95 -0.50 6.25 -0.45 6.25 0.10 0 0.30 -0.30 0.50 -0.70 0.50 -0.40 0 -0.80 0.30 -0.95 0.65 -0.30 0.90 0.25 4.05 0.80 4.40 0.30 0.20 0.25 0.95 -0.10 2 -0.30 0.95 -0.80 3 -1.05 4.55 -0.85 4.45 -4.35 8.40 -8.50 9.65 -0.70 0.20 -1.75 0.65 -2.35 1.05 -1.05 0.65 -1.15 0.65 -1.15 -0.30 0 -0.90 -0.30 -1 -3.25 -1 -2.90 0 -3.25 0.10 -3.25 1 0 1 -0.70 1.35 -1.20 0.60z" data-index="3" style="opacity: 1;"></path>
  <path d="M26 66.35 c-3.60 -0.85 -5.50 -1.90 -7.45 -4.10 -1.25 -1.45 -1.55 -2.25 -1.55 -4 0 -2.50 1.35 -4.25 3.30 -4.25 0.85 0 1.15 0.40 1.40 1.75 0.40 2 2.30 4.50 4.35 5.50 3.55 1.85 11.50 1.20 13.55 -1.10 2.20 -2.45 1.45 -6.10 -1.65 -7.65 -1 -0.55 -4.20 -1.55 -7.05 -2.20 -10 -2.40 -13.40 -5.05 -13.40 -10.55 0 -3.90 1.85 -6.35 6.25 -8.35 3.60 -1.60 11.35 -1.60 15.05 0.05 6.35 2.80 8.25 9.10 3.10 10.25 -1.20 0.25 -1.40 0.10 -1.90 -1.60 -0.85 -2.60 -2.75 -4.40 -5.25 -5.05 -6.15 -1.55 -11.75 0.65 -11.75 4.55 0 3.50 1.75 4.70 9.75 6.60 6.55 1.60 10.55 3.50 12.05 5.70 3.35 4.95 0.95 11.30 -5.20 13.60 -3.50 1.35 -9.85 1.70 -13.60 0.85z" data-index="4"></path>
  <path d="M66 66.35 c-5.55 -1.30 -8.50 -3.90 -8.90 -7.75 -0.20 -2.10 -0.05 -2.60 0.95 -3.55 1.40 -1.30 3.45 -1.40 3.45 -0.20 0 1.85 2.05 5 3.95 6.05 3.90 2.20 11.90 1.75 14.15 -0.75 2.20 -2.45 1.45 -6.10 -1.65 -7.65 -1 -0.55 -4.20 -1.55 -7.05 -2.20 -10 -2.40 -13.40 -5.05 -13.40 -10.55 0 -3.90 1.85 -6.35 6.25 -8.35 3.60 -1.60 11.35 -1.60 15.05 0.05 6.35 2.80 8.25 9.10 3.10 10.25 -1.20 0.25 -1.40 0.10 -1.90 -1.60 -0.85 -2.60 -2.75 -4.40 -5.25 -5.05 -6.15 -1.55 -11.75 0.65 -11.75 4.55 0 3.50 1.75 4.70 9.75 6.60 6.55 1.60 10.55 3.50 12.05 5.70 3.35 4.95 0.95 11.30 -5.20 13.60 -3.50 1.35 -9.85 1.70 -13.60 0.85z" data-index="5" style="opacity: 1;"></path>
  <path d="M109 51.05 l0 -16.05 -6.55 0 -6.55 0 0.35 -1.35 c0.15 -0.80 0.75 -1.85 1.30 -2.40 0.90 -0.95 1.75 -1 15.45 -1.15 14.20 -0.15 14.50 -0.10 14.50 0.85 0 0.55 -0.55 1.65 -1.20 2.40 -1.15 1.35 -1.40 1.40 -6.50 1.55 l-5.30 0.20 0 14.60 c0 14.55 0 14.65 -1.10 15.65 -0.65 0.60 -1.90 1.20 -2.75 1.40 l-1.65 0.35 0 -16.05z" data-index="6" style="opacity: 1;"></path>
  <path d="M179.50 49.50 c0 -17.10 0 -17.50 1.05 -18.55 1 -1 1.45 -1.05 10.60 -0.85 8.70 0.15 9.80 0.25 11.65 1.25 3.75 2 5.70 5.35 5.70 9.80 0 2.65 -1.05 4.85 -3.20 6.70 l-1.80 1.65 1.90 1.90 c2.20 2.20 2.60 3.60 2.60 8.90 0 3.10 -0.15 3.85 -1.10 4.90 -0.65 0.65 -1.90 1.35 -2.75 1.55 l-1.65 0.35 0 -5.35 c0 -5.70 -0.70 -8.25 -2.40 -9.20 -0.60 -0.30 -4 -0.55 -8.05 -0.55 l-7.05 0 0 6.05 c0 3.30 -0.20 6.45 -0.50 6.95 -0.45 0.85 -2.90 2 -4.30 2 -0.60 0 -0.70 -3.15 -0.70 -17.50z m20.85 -3.50 c3.20 -1.90 3.35 -7.60 0.30 -9.95 -1.15 -0.95 -2 -1.05 -8.45 -1.05 l-7.20 0 0 6 0 6 6.90 0 c5.90 0 7.05 -0.15 8.45 -1z" data-index="7" style="opacity: 1;"></path>
  <path d="M220.50 50.10 c0 -14.20 0.10 -17.05 0.75 -17.95 0.85 -1.25 4.10 -2.50 4.75 -1.85 0.25 0.25 2.95 6.30 6 13.45 3.05 7.15 5.80 13.50 6.10 14.10 0.45 0.85 0.40 1.45 -0.05 2.45 -0.30 0.75 -0.45 1.45 -0.35 1.60 0.15 0.15 0.60 -0.50 1 -1.45 1.30 -3.15 11.90 -29.20 12.15 -29.85 0.40 -0.95 3.15 -0.25 4.50 1.05 1.10 1.10 1.15 1.20 1.15 18.10 l0.05 17 -1.65 -0.15 c-3.25 -0.25 -3.40 -0.90 -3.40 -13.35 0 -6.85 0.20 -11.70 0.55 -12.70 0.30 -0.90 0.45 -1.70 0.30 -1.85 -0.10 -0.15 -2.80 6 -5.90 13.60 -5.95 14.40 -6.60 15.45 -8.80 14.30 -0.65 -0.35 -2.90 -5.15 -6.65 -14.20 -6.10 -14.70 -5.90 -14.20 -6.25 -13.80 -0.15 0.15 0.10 1.05 0.50 2.05 0.60 1.45 0.75 4.10 0.75 12.60 0 6.10 -0.20 11.20 -0.50 11.75 -0.45 0.85 -2.90 2 -4.30 2 -0.60 0 -0.70 -3.05 -0.70 -16.90z" data-index="8" style="opacity: 1;"></path>
  <path d="M150 34.50 l0 -2 3.25 0 3.25 0 0 -1.50 c0 -1 0.25 -1.50 0.75 -1.50 0.40 0 0.75 0.35 0.75 0.75 0 0.40 0.45 0.75 1 0.75 0.60 0 1 -0.35 1 -0.80 0 -0.45 0.30 -0.70 0.65 -0.60 0.35 0.15 0.65 1.35 0.75 3.05 0.15 2.65 0.10 2.85 -1.15 3.15 -0.70 0.15 -1.85 0.20 -2.50 0.10 -0.70 -0.15 -1.25 -0.05 -1.25 0.15 0 0.25 -0.35 0.45 -0.75 0.45 -0.40 0 -0.75 -0.35 -0.75 -0.75 0 -0.50 -0.55 -0.75 -1.75 -0.75 -1.30 0 -1.65 0.15 -1.45 0.75 0.20 0.50 0 0.75 -0.75 0.75 -0.90 0 -1.05 -0.30 -1.05 -2z" data-index="9"></path>
  <path d="M144.20 35.30 c-0.15 -0.35 -0.20 -1.75 -0.10 -3.05 0.15 -2.50 1.20 -3.65 1.50 -1.65 l0.15 1.15 1.15 -1.10 c0.60 -0.65 1.35 -1.15 1.60 -1.15 0.70 0 0.60 5.20 -0.10 5.90 -0.85 0.85 -3.85 0.75 -4.20 -0.10z" data-index="10" style="opacity: 1;"></path>
 </g>
 <g fill="#00bf6a">
  <path d="M150.15 67.60 c-1.60 -0.15 -3.50 -2.15 -2.90 -3.10 0.40 -0.60 9.75 -0.65 10.65 -0.05 0.55 0.30 0.45 0.70 -0.50 1.70 -1.20 1.35 -3.65 1.85 -7.25 1.45z" data-index="11"></path>
  <path d="M143.30 63.25 c-0.55 -0.40 -0.80 -0.90 -0.65 -1.10 0.40 -0.40 2.85 0.85 2.85 1.45 0 0.65 -1.15 0.45 -2.20 -0.35z" data-index="12"></path>
  <path d="M160.50 63 c1.30 -1 2 -1.25 2 -0.70 0 0.55 -1.70 1.65 -2.50 1.65 -0.50 0.05 -0.30 -0.30 0.50 -0.95z" data-index="13"></path>
  <path d="M140.10 59.95 c-0.35 -0.60 -0.55 -1.15 -0.40 -1.30 0.35 -0.35 1.25 0.30 1.80 1.40 0.75 1.35 -0.55 1.30 -1.40 -0.10z" data-index="14"></path>
  <path d="M163.50 60.65 c0.05 -0.70 1.35 -2.15 1.95 -2.15 0.35 0 0.30 0.45 -0.25 1.25 -0.80 1.20 -1.70 1.70 -1.70 0.90z" data-index="15"></path>
  <path d="M137.60 55.75 c-0.90 -1.95 -0.70 -2.50 0.40 -1.50 1 0.90 1.40 2.75 0.60 2.75 -0.25 0 -0.70 -0.55 -1 -1.25z" data-index="16"></path>
  <path d="M166 56.75 c0 -0.60 1.20 -2.75 1.60 -2.75 0.50 0 0.50 0.15 -0.10 1.70 -0.40 1.10 -1.50 1.85 -1.50 1.05z" data-index="17"></path>
  <path d="M136.60 52.10 c-0.35 -0.65 -0.60 -1.65 -0.50 -2.25 l0.15 -1.10 0.65 1.15 c0.35 0.65 0.60 1.65 0.50 2.25 l-0.15 1.10 -0.65 -1.15z" data-index="18"></path>
  <path d="M168 51.15 c0 -1.70 0.15 -2.05 0.75 -1.85 0.95 0.35 0.95 1.10 0 2.70 -0.70 1.25 -0.70 1.20 -0.75 -0.85z" data-index="19"></path>
  <path d="M169 46.75 c0 -0.75 0.20 -1.20 0.50 -1 0.30 0.15 0.50 0.60 0.50 1 0 0.40 -0.20 0.85 -0.50 1 -0.30 0.20 -0.50 -0.25 -0.50 -1z" data-index="20"></path>
  <path d="M135.35 47.15 c-0.65 -0.65 -0.35 -1.60 0.40 -1.35 0.40 0.20 0.75 0.60 0.75 1 0 0.75 -0.60 0.95 -1.15 0.35z" data-index="21"></path>
  <path d="M143.25 46 c-1.90 -0.25 -4.85 -0.75 -6.50 -1.15 -2.85 -0.65 -3 -0.75 -3 -2.15 0 -1.10 0.25 -1.50 1.15 -1.60 0.85 -0.15 1.10 -0.50 1.10 -1.75 0 -3.60 4.15 -9.60 7.95 -11.60 l1.55 -0.80 0 3.50 c0 1.90 0.20 3.60 0.45 3.75 0.95 0.60 1.45 -1.10 1.50 -4.90 0.05 -2.60 0.30 -4.15 0.70 -4.40 0.70 -0.45 7.10 -0.50 8.75 -0.10 1.05 0.30 1.10 0.60 1.10 4.75 0 2.40 0.20 4.50 0.40 4.65 0.75 0.45 1.70 -0.55 1.60 -1.75 -0.25 -3 0 -4.95 0.70 -4.95 0.40 0 1.80 1 3.15 2.20 2.55 2.30 4.80 6.20 5.35 9.35 0.25 1.40 0.60 1.90 1.55 2.15 1.70 0.45 1.75 2.65 0.15 3.05 -7.80 1.85 -20.40 2.65 -27.65 1.75z m11 -7.90 c0.30 0.10 0.55 -0.80 0.65 -1.95 l0.15 -2.15 -1.80 0 c-1.75 0 -1.80 0.05 -1.50 1.50 0.25 1.20 0.15 1.50 -0.50 1.50 -0.95 0 -0.95 0.10 0.75 2.60 l1.25 1.85 0.25 -1.75 c0.15 -0.95 0.50 -1.65 0.75 -1.60z" data-index="22" style="opacity: 1;"></path>
 </g>
</svg>